<svg xmlns="http://www.w3.org/2000/svg" version="1.1" xmlns:xlink="http://www.w3.org/1999/xlink" xmlns:svgjs="http://svgjs.dev/svgjs" width="1000" height="138" viewBox="0 0 1000 138"><g transform="matrix(1,0,0,1,-0.6060605742069356,-0.11549513032426262)"><svg viewBox="0 0 396 55" data-background-color="#ffffff" preserveAspectRatio="xMidYMid meet" height="138" width="1000" xmlns="http://www.w3.org/2000/svg" xmlns:xlink="http://www.w3.org/1999/xlink"><g id="tight-bounds" transform="matrix(1,0,0,1,0.24000001261413217,0.04603066788286014)"><svg viewBox="0 0 395.52 54.9079386642343" height="54.9079386642343" width="395.52"><g><svg viewBox="0 0 491.5208111535309 68.23522085106383" height="54.9079386642343" width="395.52"><g><rect width="4.452621298912341" height="59.249106382978724" x="407.1760766987233" y="4.493057234042553" fill="#2257bf" opacity="1" stroke-width="0" stroke="transparent" fill-opacity="1" class="rect-o-0" data-fill-palette-color="primary" rx="1%" id="o-0" data-palette-color="#2257bf"></rect></g><g transform="matrix(1,0,0,1,0,9.430482765957446)"><svg viewBox="0 0 395.5199999999999 49.374255319148936" height="49.374255319148936" width="395.5199999999999"><g id="textblocktransform"><svg viewBox="0 0 395.5199999999999 49.374255319148936" height="49.374255319148936" width="395.5199999999999" id="textblock"><g><svg viewBox="0 0 395.5199999999999 49.374255319148936" height="49.374255319148936" width="395.5199999999999"><g transform="matrix(1,0,0,1,0,0)"><svg width="395.5199999999999" viewBox="1.100000023841858 -36.95000076293945 300.7799987792969 37.54999923706055" height="49.374255319148936" data-palette-color="#2257bf"><path d="M11.75 0L11.75-32.7 1.1-32.7 1.1-36.45 27.8-36.45 27.8-32.7 17-32.7 17 0 11.75 0ZM37.75-36.45L42.5-36.45 55.15 0 49.55 0 45.45-12.1 33.7-12.1 29.55 0 25.05 0 37.75-36.45ZM44.2-15.8L39.6-29.8 34.95-15.8 44.2-15.8ZM59.95-33.2L59.24-36.45 65.05-36.45 65.05-3.75 80.14-3.75 80.14 0 59.95 0 59.95-33.2ZM85.64-33.2L84.94-36.45 107.04-36.45 107.04-32.7 90.74-32.7 90.74-20.6 103.34-20.6 103.34-16.85 90.74-16.85 90.74-3.75 107.04-3.75 107.04 0 85.64 0 85.64-33.2ZM112.44-36.45L119.04-36.45 134.64-12.5Q135.09-11.8 135.59-11.03 136.09-10.25 136.59-9.5L136.59-9.5Q136.54-10.35 136.47-11.25 136.39-12.15 136.39-13L136.39-13 136.39-36.45 140.59-36.45 140.59 0.25 137.14 0.25 118.99-27.45Q118.59-28.15 118.09-28.9 117.59-29.65 117.09-30.35L117.09-30.35Q117.19-29.55 117.24-28.7 117.29-27.85 117.29-27.05L117.29-27.05 117.29 0 113.14 0 113.14-33.2 112.44-36.45ZM156.44 0L156.44-32.7 145.79-32.7 145.79-36.45 172.49-36.45 172.49-32.7 161.69-32.7 161.69 0 156.44 0ZM177.69-33.2L176.99-36.45 182.78-36.45 182.78-3.75 197.89-3.75 197.89 0 177.69 0 177.69-33.2ZM202.73-36.45L202.73-36.45 208.53-36.45 208.53 0 203.43 0 203.43-33.2Q203.43-33.25 203.26-33.98 203.08-34.7 202.93-35.5 202.78-36.3 202.73-36.45ZM216.13-36.45L222.73-36.45 238.33-12.5Q238.78-11.8 239.28-11.03 239.78-10.25 240.28-9.5L240.28-9.5Q240.23-10.35 240.16-11.25 240.08-12.15 240.08-13L240.08-13 240.08-36.45 244.28-36.45 244.28 0.25 240.83 0.25 222.68-27.45Q222.28-28.15 221.78-28.9 221.28-29.65 220.78-30.35L220.78-30.35Q220.88-29.55 220.93-28.7 220.98-27.85 220.98-27.05L220.98-27.05 220.98 0 216.83 0 216.83-33.2 216.13-36.45ZM252.48-33.2L251.78-36.45 257.58-36.45 257.58-20.15 271.58-36.45 276.73-36.45 262.93-20.3 277.68 0 271.43 0 257.58-18.85 257.58 0 252.48 0 252.48-33.2ZM291.53-36.95L291.53-36.95Q294.08-36.95 296.5-36.25 298.93-35.55 301.08-34.2L301.08-34.2 298.58-30.65Q297.03-31.8 295.2-32.48 293.38-33.15 291.48-33.15L291.48-33.15Q288.98-33.15 287.18-31.9 285.38-30.65 285.38-27.9L285.38-27.9Q285.38-26.3 286.2-25.2 287.03-24.1 288.43-23.28 289.83-22.45 291.53-21.65L291.53-21.65Q293.28-20.85 295.1-19.9 296.93-18.95 298.48-17.68 300.03-16.4 300.95-14.58 301.88-12.75 301.88-10.1L301.88-10.1Q301.88-6.45 300.13-4.08 298.38-1.7 295.5-0.55 292.63 0.6 289.33 0.6L289.33 0.6Q286.53 0.6 283.9-0.13 281.28-0.85 278.83-2.15L278.83-2.15 280.73-6.55Q282.43-5.1 284.75-4.17 287.08-3.25 289.28-3.25L289.28-3.25Q290.93-3.25 292.58-3.88 294.23-4.5 295.33-5.85 296.43-7.2 296.43-9.3L296.43-9.3Q296.43-11.4 295.38-12.78 294.33-14.15 292.65-15.13 290.98-16.1 289.08-16.95L289.08-16.95Q287.43-17.75 285.8-18.6 284.18-19.45 282.83-20.6 281.48-21.75 280.68-23.38 279.88-25 279.88-27.25L279.88-27.25Q279.88-30.5 281.58-32.65 283.28-34.8 285.95-35.88 288.63-36.95 291.53-36.95Z" opacity="1" transform="matrix(1,0,0,1,0,0)" fill="#2257bf" class="wordmark-text-0" data-fill-palette-color="primary" id="text-0"></path></svg></g></svg></g></svg></g></svg></g><g transform="matrix(1,0,0,1,423.284774696359,0)"><svg viewBox="0 0 68.23603645717179 68.23522085106383" height="68.23522085106383" width="68.23603645717179"><g><svg xmlns="http://www.w3.org/2000/svg" xmlns:xlink="http://www.w3.org/1999/xlink" version="1.1" x="0" y="0" viewBox="2 2.000718116760254 60 59.99928283691406" style="enable-background:new 0 0 64 64;" xml:space="preserve" height="68.23522085106383" width="68.23603645717179" class="icon-icon-0" data-fill-palette-color="accent" id="icon-0"><polygon points="31,36.618 31,40 33,40 33,36.618 34.447,35.895 33.553,34.105 32,34.882 30.447,34.105 29.553,35.895 " fill="#2257bf" data-fill-palette-color="accent"></polygon><path d="M17.943 49.587C16.784 50.289 16 51.549 16 53c0 2.206 1.794 4 4 4v1c0 2.206 1.794 4 4 4h16c2.206 0 4-1.794 4-4v-1c2.206 0 4-1.794 4-4 0-1.451-0.784-2.711-1.943-3.413l0.341-2.825C51.553 41.197 55 32.68 55 25.451v-1.377c0-5.867-2.372-11.39-6.679-15.553-4.503-4.353-10.749-6.728-17.158-6.506C18.942 2.43 9 12.552 9 24.578v0.873c0 7.229 3.447 15.747 8.602 21.312L17.943 49.587zM42 58c0 1.103-0.897 2-2 2H24c-1.103 0-2-0.897-2-2v-1h20V58zM44 55H20c-1.103 0-2-0.897-2-2s0.897-2 2-2h6v1c0 0.552 0.448 1 1 1h10c0.552 0 1-0.448 1-1v-1h6c1.103 0 2 0.897 2 2S45.103 55 44 55zM30.038 31.248C29.369 30.662 29 29.864 29 29c0-1.654 1.346-3 3-3s3 1.346 3 3c0 0.864-0.369 1.662-1.038 2.248-0.314 0.274-0.424 0.714-0.278 1.104S34.204 33 34.621 33H36c1.103 0 2 0.897 2 2v5.382l-1.447 0.724C36.214 41.275 36 41.621 36 42v9h-8v-9c0-0.379-0.214-0.725-0.553-0.895L26 40.382V35c0-1.103 0.897-2 2-2h1.379c0.417 0 0.79-0.258 0.936-0.648S30.352 31.521 30.038 31.248zM11 24.578c0-10.96 9.076-20.186 20.232-20.565 5.948-0.2 11.523 1.909 15.7 5.945C50.845 13.741 53 18.753 53 24.073v1.377c0 6.75-3.405 15.047-8.28 20.177-0.148 0.156-0.242 0.355-0.268 0.569l-0.339 2.814C44.074 49.01 44.038 49 44 49h-6v-6.382l1.447-0.724C39.786 41.725 40 41.379 40 41v-6c0-2.017-1.5-3.69-3.444-3.961C36.846 30.402 37 29.708 37 29c0-2.757-2.243-5-5-5s-5 2.243-5 5c0 0.708 0.154 1.402 0.444 2.039C25.5 31.31 24 32.983 24 35v6c0 0.379 0.214 0.725 0.553 0.895L26 42.618V49h-6c-0.038 0-0.074 0.01-0.112 0.011l-0.339-2.814c-0.026-0.214-0.12-0.414-0.268-0.569C14.405 40.498 11 32.201 11 25.451V24.578z" fill="#2257bf" data-fill-palette-color="accent"></path><path d="M27.783 17.26L26.1 22.705c-0.128 0.416 0.027 0.867 0.383 1.116 0.356 0.249 0.834 0.238 1.179-0.025L32 20.481l4.337 3.313C36.516 23.931 36.73 24 36.944 24c0.2 0 0.4-0.06 0.572-0.18 0.356-0.249 0.512-0.7 0.383-1.116l-1.683-5.445 4.39-3.354c0.341-0.26 0.478-0.708 0.34-1.115s-0.519-0.68-0.947-0.68h-5.374l-1.671-5.407C32.826 6.286 32.438 6 32 6s-0.826 0.286-0.956 0.705l-1.671 5.407H24c-0.429 0-0.81 0.273-0.947 0.68s0 0.854 0.34 1.115L27.783 17.26zM30.111 14.111c0.438 0 0.826-0.286 0.956-0.705L32 10.387l0.933 3.02c0.13 0.419 0.517 0.705 0.956 0.705h3.155l-2.595 1.983c-0.333 0.254-0.472 0.689-0.349 1.09l0.965 3.122-2.458-1.877c-0.179-0.137-0.393-0.206-0.607-0.206s-0.428 0.068-0.607 0.206l-2.458 1.877 0.965-3.122c0.124-0.4-0.016-0.835-0.349-1.09l-2.595-1.983H30.111z" fill="#2257bf" data-fill-palette-color="accent"></path><rect x="58" y="56" width="2" height="2" fill="#2257bf" data-fill-palette-color="accent"></rect><rect x="58" y="60" width="2" height="2" fill="#2257bf" data-fill-palette-color="accent"></rect><rect x="60" y="58" width="2" height="2" fill="#2257bf" data-fill-palette-color="accent"></rect><rect x="56" y="58" width="2" height="2" fill="#2257bf" data-fill-palette-color="accent"></rect><rect x="4" y="56" width="2" height="2" fill="#2257bf" data-fill-palette-color="accent"></rect><rect x="4" y="60" width="2" height="2" fill="#2257bf" data-fill-palette-color="accent"></rect><rect x="6" y="58" width="2" height="2" fill="#2257bf" data-fill-palette-color="accent"></rect><rect x="2" y="58" width="2" height="2" fill="#2257bf" data-fill-palette-color="accent"></rect><rect x="57" y="23" width="4" height="2" fill="#2257bf" data-fill-palette-color="accent"></rect><rect x="3" y="23" width="4" height="2" fill="#2257bf" data-fill-palette-color="accent"></rect><rect x="49.092" y="3.908" transform="matrix(0.7071 -0.7071 0.7071 0.7071 11.4938 37.5649)" width="4" height="2" fill="#2257bf" data-fill-palette-color="accent"></rect><rect x="11.908" y="2.908" transform="matrix(0.7071 -0.7071 0.7071 0.7071 0.3101 10.5651)" width="2" height="4" fill="#2257bf" data-fill-palette-color="accent"></rect></svg></g></svg></g></svg></g><defs></defs></svg><rect width="395.52" height="54.9079386642343" fill="none" stroke="none" visibility="hidden"></rect></g></svg></g></svg>